<?xml version="1.0" encoding="iso-8859-1"?>
<!-- Uploaded to: SVG Repo, www.svgrepo.com, Generator: SVG Repo Mixer Tools -->
<svg version="1.1" id="Layer_1" xmlns="http://www.w3.org/2000/svg" xmlns:xlink="http://www.w3.org/1999/xlink" 
	 viewBox="0 0 505 505" xml:space="preserve">
<circle style="fill:#54C0EB;" cx="252.5" cy="252.5" r="252.5"/>
<path style="fill:#84DBFF;" d="M72.6,429.5C118.4,476.1,182,505,252.5,505s134.1-29,179.9-75.5H72.6z"/>
<polygon style="fill:#E6E9EE;" points="309.1,342.9 195.9,342.9 183.9,400.3 321.1,400.3 "/>
<polygon style="fill:#CED5E0;" points="314.8,370.2 309.1,342.9 195.9,342.9 190.2,370.2 "/>
<path style="fill:#324A5E;" d="M428.9,313.6V104c0-1.5-1.2-2.7-2.7-2.7H78.8c-1.5,0-2.7,1.2-2.7,2.7v209.7h352.8V313.6z"/>
<path style="fill:#E6E9EE;" d="M76.1,312.4V338c0,9.4,7.6,17.1,17.1,17.1h318.6c9.4,0,17.1-7.6,17.1-17.1v-25.6H76.1z"/>
<rect x="98.8" y="124.6" style="fill:#FFFFFF;" width="307.5" height="161.8"/>
<g>
	<path style="fill:#CED5E0;" d="M331.2,400.3H173.8c-7.9,0-14.4,6.4-14.4,14.4l0,0c0,7.9,6.4,14.4,14.4,14.4h157.3
		c7.9,0,14.4-6.4,14.4-14.4l0,0C345.5,406.7,339.1,400.3,331.2,400.3z"/>
	<circle style="fill:#CED5E0;" cx="252.5" cy="333" r="9.9"/>
</g>
<polygon style="fill:#2C9984;" points="328.4,240.7 258.4,240.7 258.4,163.6 246.6,163.6 246.6,240.7 176.6,240.7 176.6,252.5 
	328.4,252.5 "/>
<g>
	<path style="fill:#4CDBC4;" d="M267.9,180.8h-30.7c-1,0-1.8-0.8-1.8-1.8v-30.7c0-1,0.8-1.8,1.8-1.8h30.7c1,0,1.8,0.8,1.8,1.8V179
		C269.7,180,268.9,180.8,267.9,180.8z"/>
	<path style="fill:#4CDBC4;" d="M192,263.8h-30.7c-1,0-1.8-0.8-1.8-1.8v-30.7c0-1,0.8-1.8,1.8-1.8H192c1,0,1.8,0.8,1.8,1.8V262
		C193.8,263,193,263.8,192,263.8z"/>
	<path style="fill:#4CDBC4;" d="M267.9,263.8h-30.7c-1,0-1.8-0.8-1.8-1.8v-30.7c0-1,0.8-1.8,1.8-1.8h30.7c1,0,1.8,0.8,1.8,1.8V262
		C269.7,263,268.9,263.8,267.9,263.8z"/>
	<path style="fill:#4CDBC4;" d="M343.7,263.8H313c-1,0-1.8-0.8-1.8-1.8v-30.7c0-1,0.8-1.8,1.8-1.8h30.7c1,0,1.8,0.8,1.8,1.8V262
		C345.5,263,344.7,263.8,343.7,263.8z"/>
</g>
</svg>